# xmcd CD database file
#
# Track frame offsets:
#	150
#	20677
#	38670
#	51767
#	73462
#	94062
#	116885
#	128327
#	146660
#	162422
#	184009
#	202300
#	216705
#	234115
#	252015
#
# Disc length: 3631 seconds
#
# Revision: 3
# Processed by: cddbd v1.5.2PL0 Copyright (c) Steve Scherf et al.
# Submitted via: CDex 1.51
#
DISCID=e20e2d0f
DTITLE=Steve Brooks - Purgatory Raod
DYEAR=1900
DGENRE=Folk
TTITLE0=Purgatory Road
TTITLE1=The Bluebonnet Waltz
TTITLE2=Half an Inch of Heaven
TTITLE3=Dead Poets Society
TTITLE4=Hurt Me Tonight
TTITLE5=Father and Mother and Me (Seneca Sweat)
TTITLE6=Added Years to My Life
TTITLE7=Lighthouse
TTITLE8=The Great White Hope
TTITLE9=The Land of Catfish
TTITLE10=The River is a Woman
TTITLE11=Under the Desert Moon
TTITLE12=North of the Border
TTITLE13=(Deep in My Heart is) Texas
TTITLE14=The Fine Art of Letting Go
EXTD=
EXTT0=
EXTT1=
EXTT2=
EXTT3=
EXTT4=
EXTT5=
EXTT6=
EXTT7=
EXTT8=
EXTT9=
EXTT10=
EXTT11=
EXTT12=
EXTT13=
EXTT14=
PLAYORDER=
